REM DIRINDEX 1\2,1\3,1\4,1\5\6,1\5\7,1\8
REM DIRNAME folder01,folder02,folder03,folder04,folder05,folder06,folder07,folder08
TITLE ""
FILE "052 【052】Unit3 (0589 ambiguous_0600 hybrid).mp3" MP3
  TRACK 01 AUDIO
    TITLE "0:"
    INDEX 01 00:00:00
  TRACK 02 AUDIO
    TITLE "2:cjc115_1996"
    INDEX 01 00:00:07
  TRACK 03 AUDIO
    TITLE "0:"
    INDEX 01 00:01:42
  TRACK 04 AUDIO
    TITLE "3:cjc115_1997"
    INDEX 01 00:01:52
  TRACK 05 AUDIO
    TITLE "0:"
    INDEX 01 00:03:00
  TRACK 06 AUDIO
    TITLE "4:cjc115_1998"
    INDEX 01 00:03:06
  TRACK 07 AUDIO
    TITLE "0:"
    INDEX 01 00:07:11
  TRACK 08 AUDIO
    TITLE "2:cjc115_1999"
    INDEX 01 00:08:21
  TRACK 09 AUDIO
    TITLE "0:"
    INDEX 01 00:09:67
  TRACK 10 AUDIO
    TITLE "3:cjc115_2000"
    INDEX 01 00:10:00
  TRACK 11 AUDIO
    TITLE "0:"
    INDEX 01 00:12:42
  TRACK 12 AUDIO
    TITLE "4:cjc115_2001"
    INDEX 01 00:12:50
  TRACK 13 AUDIO
    TITLE "0:"
    INDEX 01 00:17:57
  TRACK 14 AUDIO
    TITLE "2:cjc115_2002"
    INDEX 01 00:18:64
  TRACK 15 AUDIO
    TITLE "0:"
    INDEX 01 00:20:00
  TRACK 16 AUDIO
    TITLE "3:cjc115_2003"
    INDEX 01 00:20:08
  TRACK 17 AUDIO
    TITLE "0:"
    INDEX 01 00:22:32
  TRACK 18 AUDIO
    TITLE "4:cjc115_2004"
    INDEX 01 00:22:38
  TRACK 19 AUDIO
    TITLE "0:"
    INDEX 01 00:26:58
  TRACK 20 AUDIO
    TITLE "2:cjc115_2005"
    INDEX 01 00:27:69
  TRACK 21 AUDIO
    TITLE "0:"
    INDEX 01 00:29:36
  TRACK 22 AUDIO
    TITLE "3:cjc115_2006"
    INDEX 01 00:29:46
  TRACK 23 AUDIO
    TITLE "0:"
    INDEX 01 00:31:31
  TRACK 24 AUDIO
    TITLE "4:cjc115_2007"
    INDEX 01 00:31:37
  TRACK 25 AUDIO
    TITLE "0:"
    INDEX 01 00:35:70
  TRACK 26 AUDIO
    TITLE "2:cjc115_2008"
    INDEX 01 00:37:05
  TRACK 27 AUDIO
    TITLE "0:"
    INDEX 01 00:38:33
  TRACK 28 AUDIO
    TITLE "3:cjc115_2009"
    INDEX 01 00:38:43
  TRACK 29 AUDIO
    TITLE "0:"
    INDEX 01 00:40:13
  TRACK 30 AUDIO
    TITLE "4:cjc115_2010"
    INDEX 01 00:40:21
  TRACK 31 AUDIO
    TITLE "0:"
    INDEX 01 00:44:52
  TRACK 32 AUDIO
    TITLE "2:cjc115_2011"
    INDEX 01 00:45:63
  TRACK 33 AUDIO
    TITLE "0:"
    INDEX 01 00:47:19
  TRACK 34 AUDIO
    TITLE "3:cjc115_2012"
    INDEX 01 00:47:28
  TRACK 35 AUDIO
    TITLE "0:"
    INDEX 01 00:49:08
  TRACK 36 AUDIO
    TITLE "4:cjc115_2013"
    INDEX 01 00:49:20
  TRACK 37 AUDIO
    TITLE "0:"
    INDEX 01 00:53:60
  TRACK 38 AUDIO
    TITLE "2:cjc115_2014"
    INDEX 01 00:54:70
  TRACK 39 AUDIO
    TITLE "0:"
    INDEX 01 00:56:29
  TRACK 40 AUDIO
    TITLE "3:cjc115_2015"
    INDEX 01 00:56:39
  TRACK 41 AUDIO
    TITLE "0:"
    INDEX 01 00:59:08
  TRACK 42 AUDIO
    TITLE "4:cjc115_2016"
    INDEX 01 00:59:16
  TRACK 43 AUDIO
    TITLE "0:"
    INDEX 01 01:02:57
  TRACK 44 AUDIO
    TITLE "2:cjc115_2017"
    INDEX 01 01:03:65
  TRACK 45 AUDIO
    TITLE "0:"
    INDEX 01 01:05:22
  TRACK 46 AUDIO
    TITLE "3:cjc115_2018"
    INDEX 01 01:05:32
  TRACK 47 AUDIO
    TITLE "0:"
    INDEX 01 01:06:47
  TRACK 48 AUDIO
    TITLE "4:cjc115_2019"
    INDEX 01 01:06:55
  TRACK 49 AUDIO
    TITLE "0:"
    INDEX 01 01:10:71
  TRACK 50 AUDIO
    TITLE "2:cjc115_2020"
    INDEX 01 01:12:07
  TRACK 51 AUDIO
    TITLE "0:"
    INDEX 01 01:13:24
  TRACK 52 AUDIO
    TITLE "3:cjc115_2021"
    INDEX 01 01:13:32
  TRACK 53 AUDIO
    TITLE "0:"
    INDEX 01 01:17:71
  TRACK 54 AUDIO
    TITLE "4:cjc115_2022"
    INDEX 01 01:18:06
  TRACK 55 AUDIO
    TITLE "0:"
    INDEX 01 01:21:16
  TRACK 56 AUDIO
    TITLE "2:cjc115_2023"
    INDEX 01 01:22:29
  TRACK 57 AUDIO
    TITLE "0:"
    INDEX 01 01:23:36
  TRACK 58 AUDIO
    TITLE "3:cjc115_2024"
    INDEX 01 01:23:46
  TRACK 59 AUDIO
    TITLE "0:"
    INDEX 01 01:25:60
  TRACK 60 AUDIO
    TITLE "4:cjc115_2025"
    INDEX 01 01:25:68
  TRACK 61 AUDIO
    TITLE "0:"
    INDEX 01 01:30:07
  TRACK 62 AUDIO
    TITLE "2:cjc115_2026"
    INDEX 01 01:31:16
  TRACK 63 AUDIO
    TITLE "0:"
    INDEX 01 01:32:41
  TRACK 64 AUDIO
    TITLE "3:cjc115_2027"
    INDEX 01 01:32:49
  TRACK 65 AUDIO
    TITLE "0:"
    INDEX 01 01:33:64
  TRACK 66 AUDIO
    TITLE "4:cjc115_2028"
    INDEX 01 01:33:72
  TRACK 67 AUDIO
    TITLE "0:"
    INDEX 01 01:37:64
  TRACK 68 AUDIO
    TITLE "2:cjc115_2029"
    INDEX 01 01:38:73
  TRACK 69 AUDIO
    TITLE "0:"
    INDEX 01 01:40:13
  TRACK 70 AUDIO
    TITLE "3:cjc115_2030"
    INDEX 01 01:40:21
  TRACK 71 AUDIO
    TITLE "0:"
    INDEX 01 01:42:59
  TRACK 72 AUDIO
    TITLE "4:cjc115_2031"
    INDEX 01 01:42:67
  TRACK 73 AUDIO
    TITLE "0:"
    INDEX 01 01:47:25
